<?xml version="1.0" encoding="utf-8"?>
<!-- Generator: Adobe Illustrator 22.0.1, SVG Export Plug-In . SVG Version: 6.00 Build 0)  -->
<svg version="1.1" id="Layer_1" xmlns="http://www.w3.org/2000/svg" xmlns:xlink="http://www.w3.org/1999/xlink" x="0px" y="0px"
	 viewBox="0 0 1000 162.9" style="enable-background:new 0 0 1000 162.9;" xml:space="preserve">
<style type="text/css">
	.st0{fill:#282828;}
	.st1{fill:#513C7D;}
	.st2{fill:url(#SVGID_1_);}
	.st3{fill:url(#SVGID_2_);}
	.st4{fill:url(#SVGID_3_);}
</style>
<g>
	<g>
		<g>
			<path class="st0" d="M715.1,83.7c-2.4-1-5.1-1.5-7.8-1.5c-6.5,0-11.8-4.3-11.8-9.6c0-5.3,5.3-9.6,11.8-9.6c5.5,0,10.2,3,11.4,7.4
				l0.3,0.9h6.3l-0.3-1.4c-1.6-6.9-9-11.9-17.6-11.9c-9.9,0-17.9,6.6-17.9,14.6c0,5.6,4,10.7,10.1,13.2c2.4,1,5.1,1.5,7.8,1.5
				c6.5,0,11.8,4.3,11.8,9.6c0,5.3-5.3,9.6-11.8,9.6c-5.2,0-9.7-2.7-11.2-6.7l-0.3-0.8h-6.3l0.4,1.5c2,6.5,9.1,11.1,17.4,11.1
				c9.9,0,17.9-6.6,17.9-14.6C725.2,91.3,721.3,86.1,715.1,83.7z"/>
			<g>
				<g>
					<path class="st1" d="M272.4,110.9c-14.6,0-26.5-11.9-26.5-26.5S257.8,58,272.4,58c14.6,0,26.5,11.9,26.5,26.5
						S287,110.9,272.4,110.9z M272.4,63.3c-11.7,0-21.2,9.5-21.2,21.2s9.5,21.2,21.2,21.2c11.7,0,21.2-9.5,21.2-21.2
						S284.1,63.3,272.4,63.3z"/>
				</g>
			</g>
			<g>
				<g>
					<path class="st1" d="M332,58c-14.5,0.5-25.8,12.7-25.5,27.1l0,0l2.1,56.7l5.3-0.2l-1.5-40.5c5.1,6.2,12.9,10.1,21.5,9.8
						c14.6-0.5,26-12.8,25.5-27.4C358.9,68.9,346.6,57.5,332,58z M333.8,105.6c-11.7,0.4-21.5-8.7-21.9-20.4s8.7-21.5,20.4-21.9
						c11.7-0.4,21.5,8.7,21.9,20.4S345.4,105.2,333.8,105.6z"/>
				</g>
			</g>
			<path class="st0" d="M870.2,58c-14.5,0-26.3,11.7-26.4,26.2h0v56.7h5.3v-40.6c4.8,6.4,12.5,10.6,21.2,10.6
				c14.6,0,26.5-11.9,26.5-26.5S884.8,58,870.2,58z M870.2,105.6c-11.7,0-21.2-9.5-21.2-21.2s9.5-21.2,21.2-21.2s21.2,9.5,21.2,21.2
				S881.9,105.6,870.2,105.6z"/>
			<g>
				<path class="st0" d="M773.7,101.7c-3.5,2.5-7.7,3.9-12.2,3.9c-11.7,0-21.2-9.5-21.2-21.2s9.5-21.2,21.2-21.2
					c4.8,0,9.2,1.6,12.7,4.3l3.8-3.8c-4.5-3.6-10.3-5.8-16.5-5.8C746.9,58,735,69.9,735,84.4s11.9,26.5,26.5,26.5c6,0,11.6-2,16-5.4
					C776.2,104.2,774.9,103,773.7,101.7z"/>
			</g>
			<path class="st0" d="M671.5,28v40.6C666.7,62.2,659,58,650.3,58c-14.6,0-26.5,11.9-26.5,26.5s11.9,26.5,26.5,26.5
				c14.6,0,26.5-11.9,26.5-26.5V28H671.5z M650.3,105.6c-11.7,0-21.2-9.5-21.2-21.2s9.5-21.2,21.2-21.2c11.7,0,21.2,9.5,21.2,21.2
				S662,105.6,650.3,105.6z"/>
			<g>
				<rect x="488.7" y="28" class="st0" width="5.3" height="82.9"/>
			</g>
			<g>
				<path class="st1" d="M454,58c-8.6,0-16.3,4.2-21.2,10.6V58h-5.3v53.2h5.3v-10.9V84.4c0-11.7,9.5-21.2,21.2-21.2
					c11.7,0,21.2,9.5,21.2,21.2v15.8v10.6h5.3V84.4C480.5,69.9,468.6,58,454,58z"/>
			</g>
			<path class="st0" d="M589.8,58c-8.6,0-16.3,4.2-21.2,10.6V58h-5.3v52.9h5.3v-10.6V84.4c0-11.7,9.5-21.2,21.2-21.2
				c11.7,0,21.2,9.5,21.2,21.2v15.8v10.6h5.3V84.4C616.3,69.9,604.4,58,589.8,58z"/>
			<path class="st0" d="M555.1,84.4c0-14.6-11.9-26.5-26.5-26.5c-14.6,0-26.5,11.9-26.5,26.5s11.9,26.5,26.5,26.5
				c8.6,0,16.3-4.2,21.2-10.6v10.6h5.3V85h0C555.1,84.8,555.1,84.6,555.1,84.4z M528.7,105.6c-11.7,0-21.2-9.5-21.2-21.2
				s9.5-21.2,21.2-21.2c11.7,0,21.2,9.5,21.2,21.2S540.3,105.6,528.7,105.6z"/>
			<path class="st0" d="M837.3,84.4c0-14.6-11.9-26.5-26.5-26.5s-26.5,11.9-26.5,26.5s11.9,26.5,26.5,26.5c8.6,0,16.3-4.2,21.2-10.6
				v10.6h5.3V85h0C837.3,84.8,837.3,84.6,837.3,84.4z M810.8,105.6c-11.7,0-21.2-9.5-21.2-21.2s9.5-21.2,21.2-21.2
				S832,72.8,832,84.4S822.5,105.6,810.8,105.6z"/>
			<g>
				<g>
					<path class="st1" d="M412.4,92.7c-3.2,7.6-10.7,12.9-19.5,12.9c-10.9,0-19.9-8.2-21-18.8h47.4c0.1-0.8,0.1-1.6,0.1-2.4
						c0-14.6-11.9-26.5-26.5-26.5c-14.6,0-26.5,11.9-26.5,26.5s11.9,26.5,26.5,26.5c11.7,0,21.7-7.7,25.1-18.2H412.4z M392.9,63.3
						c10.7,0,19.5,7.9,21,18.2h-41.9C373.4,71.2,382.2,63.3,392.9,63.3z"/>
				</g>
			</g>
			<path class="st0" d="M949,92.7c-3.2,7.6-10.7,12.9-19.5,12.9c-10.9,0-19.9-8.2-21-18.8h47.4c0.1-0.8,0.1-1.6,0.1-2.4
				c0-14.6-11.9-26.5-26.5-26.5s-26.5,11.9-26.5,26.5s11.9,26.5,26.5,26.5c11.7,0,21.7-7.7,25.1-18.2H949z M929.5,63.3
				c10.7,0,19.5,7.9,21,18.2h-41.9C910,71.2,918.9,63.3,929.5,63.3z"/>
		</g>
	</g>
	<g>
		<linearGradient id="SVGID_1_" gradientUnits="userSpaceOnUse" x1="131.2982" y1="132.0491" x2="196.6081" y2="91.9145">
			<stop  offset="0" style="stop-color:#597798"/>
			<stop  offset="0.1625" style="stop-color:#6280A0"/>
			<stop  offset="0.4327" style="stop-color:#7A9AB4"/>
			<stop  offset="0.7751" style="stop-color:#A0C3D5"/>
			<stop  offset="0.9944" style="stop-color:#BCE1ED"/>
		</linearGradient>
		<circle class="st2" cx="170" cy="108.3" r="32.8"/>
		<linearGradient id="SVGID_2_" gradientUnits="userSpaceOnUse" x1="100.3132" y1="114.3427" x2="176.5688" y2="48.3031">
			<stop  offset="0" style="stop-color:#513C7D"/>
			<stop  offset="0.4782" style="stop-color:#51457D"/>
			<stop  offset="0.9944" style="stop-color:#51557D"/>
		</linearGradient>
		<path class="st3" d="M158.3,83.9c0.5-2.7,0.8-5.6,0.8-8.4c0-0.4,0-0.8,0-1.2c0-0.2,0-0.3,0-0.3l0,0c-0.8-25.1-21.4-45.2-46.7-45.2
			c-21.8,0-40,14.9-45.2,35l0,0c-7.3,14.6,10.2,77.4,10.2,77.4h96.3C157.1,140,157.2,102.3,158.3,83.9z"/>
		<linearGradient id="SVGID_3_" gradientUnits="userSpaceOnUse" x1="121.7353" y1="82.9711" x2="81.3575" y2="147.1863">
			<stop  offset="0" style="stop-color:#5653B8"/>
			<stop  offset="0.3245" style="stop-color:#565CB8"/>
			<stop  offset="0.8624" style="stop-color:#5676B8"/>
			<stop  offset="0.9944" style="stop-color:#567DB8"/>
		</linearGradient>
		<path class="st4" d="M96.1,91.5c-1.1-1.9-2.3-3.6-3.8-5.2c0,0,0,0,0,0c-6-6.7-14.7-10.9-24.4-10.9C49.7,75.4,35,90.1,35,108.3
			c0,17.9,14.3,32.4,32.1,32.8c0.2,0,0.5,0,0.7,0H162C133.9,137.6,106,104.5,96.1,91.5z"/>
	</g>
</g>
</svg>
