<?xml version="1.0" encoding="utf-8"?>
<!-- Generator: Adobe Illustrator 22.0.1, SVG Export Plug-In . SVG Version: 6.00 Build 0)  -->
<svg version="1.1" id="Layer_1" xmlns="http://www.w3.org/2000/svg" xmlns:xlink="http://www.w3.org/1999/xlink" x="0px" y="0px"
	 viewBox="0 0 1000 1000" style="enable-background:new 0 0 1000 1000;" xml:space="preserve">
<style type="text/css">
	.st0{fill:url(#SVGID_1_);}
	.st1{fill:url(#SVGID_2_);}
	.st2{fill:url(#SVGID_3_);}
	.st3{fill:#282828;}
	.st4{fill:#513C7D;}
</style>
<g>
	<g>
		<linearGradient id="SVGID_1_" gradientUnits="userSpaceOnUse" x1="552.7703" y1="624.9249" x2="820.7524" y2="460.2431">
			<stop  offset="0" style="stop-color:#597798"/>
			<stop  offset="0.1625" style="stop-color:#6280A0"/>
			<stop  offset="0.4327" style="stop-color:#7A9AB4"/>
			<stop  offset="0.7751" style="stop-color:#A0C3D5"/>
			<stop  offset="0.9944" style="stop-color:#BCE1ED"/>
		</linearGradient>
		<circle class="st0" cx="711.6" cy="527.3" r="134.7"/>
		<linearGradient id="SVGID_2_" gradientUnits="userSpaceOnUse" x1="425.6314" y1="552.2712" x2="738.5266" y2="281.2949">
			<stop  offset="0" style="stop-color:#513C7D"/>
			<stop  offset="0.4782" style="stop-color:#51457D"/>
			<stop  offset="0.9944" style="stop-color:#51557D"/>
		</linearGradient>
		<path class="st1" d="M664.7,427.3c2.1-11.2,1.9-22.8,1.9-34.7c0-1.6-0.1-3.2-0.1-4.8c0.1-0.7,0.1-1.1,0.1-1.1l-0.2,0
			C663.3,283.5,578.8,201,475,201c-89.3,0-164.3,61.1-185.6,143.7l0,0c-29.9,59.9,41.9,317.4,41.9,317.4h395.2
			C658.7,657.6,660.4,502.8,664.7,427.3z"/>
		<linearGradient id="SVGID_3_" gradientUnits="userSpaceOnUse" x1="513.5312" y1="423.5458" x2="347.8514" y2="687.0366">
			<stop  offset="0" style="stop-color:#5653B8"/>
			<stop  offset="0.3245" style="stop-color:#565CB8"/>
			<stop  offset="0.8624" style="stop-color:#5676B8"/>
			<stop  offset="0.9944" style="stop-color:#567DB8"/>
		</linearGradient>
		<path class="st2" d="M408.3,458.7c-4.4-7.6-9.6-14.7-15.6-21.2c-0.1-0.1-0.1-0.2-0.1-0.2c-24.6-27.4-60.4-44.7-100.2-44.7
			c-74.4,0-134.7,60.3-134.7,134.7c0,73.5,58.7,133.1,131.8,134.7c1,0.1,2,0.1,2.9,0.1h386.3C563.4,647.7,449.2,512,408.3,458.7z"/>
	</g>
	<g>
		<g>
			<path class="st3" d="M652.8,755.1c-3.2-1.3-6.7-1.9-10.3-1.9c-8.6,0-15.5-5.7-15.5-12.7c0-7,7-12.7,15.5-12.7
				c7.2,0,13.4,4,15.1,9.8l0.3,1.2h8.3l-0.4-1.8c-2.1-9.1-11.9-15.8-23.3-15.8c-13.1,0-23.7,8.7-23.7,19.3c0,7.4,5.3,14.2,13.4,17.4
				c3.2,1.3,6.7,1.9,10.3,1.9c8.6,0,15.5,5.7,15.5,12.7c0,7-7,12.7-15.5,12.7c-6.8,0-12.8-3.6-14.8-8.9l-0.4-1.1h-8.4l0.6,1.9
				c2.6,8.7,12.1,14.7,23,14.7c13.1,0,23.7-8.7,23.7-19.3C666.1,765.1,660.9,758.3,652.8,755.1z"/>
			<g>
				<g>
					<path class="st4" d="M67.9,791c-19.3,0-34.9-15.7-34.9-34.9s15.7-34.9,34.9-34.9s34.9,15.7,34.9,34.9S87.2,791,67.9,791z
						 M67.9,728.1c-15.4,0-28,12.5-28,28s12.5,28,28,28s28-12.5,28-28S83.3,728.1,67.9,728.1z"/>
				</g>
			</g>
			<g>
				<g>
					<path class="st4" d="M146.6,721.2c-19.1,0.7-34.1,16.7-33.6,35.8l0,0l2.8,74.9l7-0.3l-2-53.6c6.7,8.3,17,13.4,28.5,13
						c19.3-0.7,34.3-16.9,33.6-36.2S165.9,720.5,146.6,721.2z M148.9,784c-15.4,0.6-28.4-11.5-29-26.9c-0.6-15.4,11.5-28.4,26.9-29
						s28.4,11.5,29,26.9C176.4,770.5,164.3,783.5,148.9,784z"/>
				</g>
			</g>
			<path class="st3" d="M857.6,721.1c-19.1,0-34.7,15.5-34.9,34.6h0v74.9h7V777c6.4,8.5,16.5,14,28,14c19.3,0,34.9-15.7,34.9-34.9
				S876.9,721.1,857.6,721.1z M857.6,784c-15.4,0-28-12.5-28-28s12.5-28,28-28s28,12.5,28,28S873,784,857.6,784z"/>
			<g>
				<path class="st3" d="M730.1,778.9c-4.6,3.2-10.1,5.2-16.1,5.2c-15.4,0-28-12.5-28-28s12.5-28,28-28c6.3,0,12.1,2.1,16.8,5.6l5-5
					c-6-4.8-13.6-7.7-21.8-7.7c-19.3,0-34.9,15.7-34.9,34.9S694.7,791,714,791c7.9,0,15.3-2.7,21.1-7.1
					C733.4,782.2,731.8,780.5,730.1,778.9z"/>
			</g>
			<path class="st3" d="M595.2,681.5v53.6c-6.4-8.5-16.5-14-28-14c-19.3,0-34.9,15.7-34.9,34.9s15.7,34.9,34.9,34.9
				s34.9-15.7,34.9-34.9v-74.5H595.2z M567.2,784c-15.4,0-28-12.5-28-28s12.5-28,28-28s28,12.5,28,28S582.6,784,567.2,784z"/>
			<g>
				<rect x="353.7" y="681.5" class="st3" width="7" height="109.5"/>
			</g>
			<g>
				<path class="st4" d="M307.8,721.1c-11.4,0-21.6,5.5-28,14v-14h-7v70.3h7V777v-20.9c0-15.4,12.5-28,28-28c15.4,0,28,12.5,28,28
					V777v14h7v-34.9C342.8,736.8,327.1,721.1,307.8,721.1z"/>
			</g>
			<path class="st3" d="M487.2,721.1c-11.4,0-21.6,5.5-28,14v-14h-7V791h7v-14v-20.9c0-15.4,12.5-28,28-28s28,12.5,28,28V777v14h7
				v-34.9C522.2,736.8,506.5,721.1,487.2,721.1z"/>
			<path class="st3" d="M441.4,756.1c0-19.3-15.7-34.9-34.9-34.9c-19.3,0-34.9,15.7-34.9,34.9s15.7,34.9,34.9,34.9
				c11.4,0,21.6-5.5,28-14v14h7v-34.2h0C441.4,756.6,441.4,756.3,441.4,756.1z M406.5,784c-15.4,0-28-12.5-28-28s12.5-28,28-28
				c15.4,0,28,12.5,28,28S421.9,784,406.5,784z"/>
			<path class="st3" d="M814.1,756.1c0-19.3-15.7-34.9-34.9-34.9s-34.9,15.7-34.9,34.9s15.7,34.9,34.9,34.9c11.4,0,21.6-5.5,28-14
				v14h7v-34.2h0C814.1,756.6,814.1,756.3,814.1,756.1z M779.2,784c-15.4,0-28-12.5-28-28s12.5-28,28-28s28,12.5,28,28
				S794.6,784,779.2,784z"/>
			<g>
				<g>
					<path class="st4" d="M252.8,766.9c-4.2,10-14.2,17.1-25.7,17.1c-14.4,0-26.2-10.9-27.8-24.8h62.6c0.1-1,0.1-2.1,0.1-3.1
						c0-19.3-15.7-34.9-34.9-34.9s-34.9,15.7-34.9,34.9s15.7,34.9,34.9,34.9c15.5,0,28.6-10.1,33.2-24.1H252.8z M227.1,728.1
						c14.1,0,25.8,10.5,27.7,24.1h-55.4C201.3,738.6,213,728.1,227.1,728.1z"/>
				</g>
			</g>
			<path class="st3" d="M961.8,766.9c-4.2,10-14.2,17.1-25.7,17.1c-14.4,0-26.2-10.9-27.8-24.8h62.6c0.1-1,0.1-2.1,0.1-3.1
				c0-19.3-15.7-34.9-34.9-34.9c-19.3,0-34.9,15.7-34.9,34.9s15.7,34.9,34.9,34.9c15.5,0,28.6-10.1,33.2-24.1H961.8z M936.1,728.1
				c14.1,0,25.8,10.5,27.7,24.1h-55.4C910.3,738.6,922,728.1,936.1,728.1z"/>
		</g>
	</g>
</g>
</svg>
